# xmcd CD database file
#
# Track frame offsets:
#	150
#	14539
#	27047
#	43957
#	59273
#
# Disc length: 974 seconds
#
# Revision: 0
# Processed by: cddbd v1.5.1PL0 Copyright (c) Steve Scherf et al.
# Submitted via: CDex 1.51
#
DISCID=3b03cc05
DTITLE=Redneck Hillbillies - The First One
DYEAR=2001
DGENRE=Country
TTITLE0=I Don't Even Know Your Name
TTITLE1=A Way With A Broken Heart
TTITLE2=Runaway Train
TTITLE3=Achy Breaky Heart
TTITLE4=Every Little Thing
EXTD=YEAR: 2001
EXTT0=
EXTT1=
EXTT2=
EXTT3=
EXTT4=
PLAYORDER=
